Coordinates
version=1
nRows=8
nColumns=46
inDegrees=yes

Units are S.I. units (second, meters, Newtons, ...)
Angles are in degrees.

endheader
time	pelvis_tilt	pelvis_list	pelvis_rotation	pelvis_tx	pelvis_ty	pelvis_tz	bb_angle	bb_tx	bb_ty	bb_tz	hip_flexion_r	hip_adduction_r	hip_rotation_r	knee_angle_r	knee_angle_r_beta	ankle_angle_r	subtalar_angle_r	mtp_angle_r	crank_angle_r	hip_flexion_l	hip_adduction_l	hip_rotation_l	knee_angle_l	knee_angle_l_beta	ankle_angle_l	subtalar_angle_l	mtp_angle_l	crank_angle_l	lumbar_extension	lumbar_bending	lumbar_rotation	arm_flex_r	arm_add_r	arm_rot_r	elbow_flex_r	pro_sup_r	wrist_flex_r	wrist_dev_r	arm_flex_l	arm_add_l	arm_rot_l	elbow_flex_l	pro_sup_l	wrist_flex_l	wrist_dev_l
      0.00500000	    -17.50782253	      2.95684842	     -1.31631104	      0.13247953	      1.14218328	     -0.25195978	      0.00000000	      0.50000000	      0.00000000	      0.25000000	     42.05790710	     -5.12802507	     -4.73107278	     26.35459674	      0.45997449	     13.79941690	      4.87562936	      0.00000000	      0.00000000	     84.15226671	    -10.18644088	     -1.08466780	    113.29365092	      1.97734723	     15.84852578	      3.37622638	      0.00000000	      0.00000000	    -47.83722740	     -1.53883406	      1.27684425	     89.77437995	     -1.83625258	     26.16329799	     26.06328942	     21.05752666	      0.00000000	      0.00000000	     89.66293150	      2.34872897	     26.63762247	     25.56349943	     21.20791074	      0.00000000	      0.00000000
      0.01000000	    -17.70414580	      2.88447697	     -1.42728877	      0.13235039	      1.14158291	     -0.25171230	      0.00000000	      0.50000000	      0.00000000	      0.25000000	     42.32544562	     -4.93926605	     -4.55341754	     26.43569939	      0.46138999	     13.73101772	      4.53448523	      0.00000000	      0.00000000	     84.43904718	    -10.34345828	     -1.02302983	    113.34398388	      1.97822571	     15.69214318	      3.08591344	      0.00000000	      0.00000000	    -47.53033289	     -1.53229558	      1.42021392	     89.77889332	     -2.03283829	     27.76404230	     25.23425814	     22.89992781	      0.00000000	      0.00000000	     89.66316429	      2.15739245	     27.63522361	     24.72961734	     23.33928681	      0.00000000	      0.00000000
      0.01500000	    -17.70234688	      2.90434011	     -1.43276632	      0.13234455	      1.14158121	     -0.25172203	      0.00000000	      0.50000000	      0.00000000	      0.25000000	     42.34120939	     -4.96277547	     -4.56809423	     26.45927960	      0.46180155	     13.76051252	      4.61095630	      0.00000000	      0.00000000	     84.43176733	    -10.32781069	     -1.04724927	    113.34057103	      1.97816614	     15.68671076	      3.01104128	      0.00000000	      0.00000000	    -47.53051575	     -1.55467442	      1.41688486	     89.77834754	     -2.08980552	     28.09887433	     25.63238831	     20.61675479	      0.00000000	      0.00000000	     89.66312893	      2.23632403	     27.48564358	     25.06323544	     21.45469249	      0.00000000	      0.00000000
      0.02000000	    -17.72636677	      2.89946646	     -1.41187403	      0.13232678	      1.14153622	     -0.25186261	      0.00000000	      0.50000000	      0.00000000	      0.25000000	     42.38045747	     -4.99546636	     -4.61662021	     26.48598092	      0.46226757	     13.76550381	      4.69208446	      0.00000000	      0.00000000	     84.46700574	    -10.28529953	     -1.06167004	    113.33556762	      1.97807881	     15.60644901	      2.84669083	      0.00000000	      0.00000000	    -47.55356410	     -1.51020590	      1.40388932	     89.77503377	     -1.49944704	     25.01825588	     25.30838284	     24.25310439	      0.00000000	      0.00000000	     89.65858899	      2.74871587	     24.95293854	     24.60525401	     24.76650899	      0.00000000	      0.00000000
      0.02500000	    -17.75430259	      2.90660345	     -1.40878857	      0.13233225	      1.14136988	     -0.25176861	      0.00000000	      0.50000000	      0.00000000	      0.25000000	     42.41906366	     -4.99533085	     -4.59867001	     26.49409185	      0.46240914	     13.72733056	      4.63419348	      0.00000000	      0.00000000	     84.49967400	    -10.26115718	     -1.01359494	    113.35352725	      1.97839227	     15.70951960	      2.97281620	      0.00000000	      0.00000000	    -47.48181138	     -1.51982997	      1.37877737	     89.77917254	     -2.06344093	     27.96351381	     25.20551022	     23.04961343	      0.00000000	      0.00000000	     89.66613894	      2.15143289	     28.04285268	     24.55606557	     23.86537165	      0.00000000	      0.00000000
      0.03000000	    -17.70107666	      2.90700356	     -1.37067599	      0.13237315	      1.14151315	     -0.25190378	      0.00000000	      0.50000000	      0.00000000	      0.25000000	     42.37204609	     -5.04980461	     -4.71692721	     26.53145132	      0.46306118	     13.78073675	      4.74202670	      0.00000000	      0.00000000	     84.45254685	    -10.22931028	     -1.01907291	    113.36242660	      1.97854759	     15.69135726	      3.10482540	      0.00000000	      0.00000000	    -47.59776161	     -1.47838740	      1.32091410	     89.77548009	     -1.59755104	     25.40184196	     25.31568262	     24.37907324	      0.00000000	      0.00000000	     89.65867564	      2.55752907	     25.54972487	     24.69046570	     24.74398639	      0.00000000	      0.00000000
      0.03500000	    -17.74644758	      2.92128433	     -1.42316089	      0.13236785	      1.14140552	     -0.25176494	      0.00000000	      0.50000000	      0.00000000	      0.25000000	     42.42535877	     -4.99701031	     -4.57513992	     26.51749176	      0.46281754	     13.71657908	      4.57781844	      0.00000000	      0.00000000	     84.50397605	    -10.27964776	     -1.03336071	    113.36874420	      1.97865786	     15.62204354	      2.98517708	      0.00000000	      0.00000000	    -47.48278508	     -1.54183393	      1.39727048	     89.77852614	     -2.15402661	     27.98333659	     24.84910482	     25.08796112	      0.00000000	      0.00000000	     89.66738085	      2.14916894	     28.06470392	     24.17045242	     25.90463245	      0.00000000	      0.00000000
      0.04000000	    -17.74843119	      2.91447973	     -1.38738539	      0.13235766	      1.14144595	     -0.25187494	      0.00000000	      0.50000000	      0.00000000	      0.25000000	     42.41838088	     -5.01607366	     -4.57616807	     26.51215811	      0.46272445	     13.69881629	      4.57815272	      0.00000000	      0.00000000	     84.51232620	    -10.21661595	     -1.02572420	    113.35720132	      1.97845639	     15.55610181	      2.86700894	      0.00000000	      0.00000000	    -47.52477973	     -1.49234453	      1.37402151	     89.77671250	     -1.66830722	     25.54365626	     24.88113737	     26.13821920	      0.00000000	      0.00000000	     89.66118417	      2.55560016	     25.76367346	     24.19580950	     26.77604725	      0.00000000	      0.00000000
